<svg version="1.1" id="Layer_1" xmlns="http://www.w3.org/2000/svg" x="0" y="0" viewBox="0 0 135.21 135.78" xml:space="preserve"><style>.st0,.st1{fill-rule:evenodd;clip-rule:evenodd;fill:#7d1418}.st1{fill:#fff7cb}</style><path class="st0" d="M.08 81.47c.08.87.18 1.59.34 2.45.73 3.93 1.67 6.75 3.9 10.13.76 1.15 1.41 2.11 2.22 3.23 2.33 3.28 4.07 6.21 5.85 9.82l1.08 2.22.66 1.33c.23.47.72 1.43.98 1.87 2.85 4.78 6.74 7.99 11.99 9.85.51.19.94.35 1.44.55.85.37 1.56.71 2.37 1.16 2.14 1.17 5.57 3.15 7.73 4.71.4.3.74.55 1.13.86.53.42.98.76 1.53 1.15 2.65 1.87 5.2 3.03 8.35 3.8 2.77.69 5.05.95 7.79.7.97-.08 1.8-.17 2.77-.28 2.44-.27 7.52-.25 10.68.01 1.09.1 2.01.2 3.1.33l1.83.2c2.3.26 4.27.27 6.58.04 3.65-.36 7.24-1.5 10.38-3.41.95-.58 1.74-1.09 2.66-1.73.95-.66 1.76-1.21 2.72-1.85a41.42 41.42 0 013.25-1.98c1.25-.68 2.32-1.24 3.59-1.9l6.67-3.41c.43-.22 1.36-.7 1.75-.96 2.41-1.59 4.19-3.33 5.82-5.71 1.19-1.71 1.86-2.91 2.56-4.74l.66-1.69.31-.65c.33-.81.63-1.49 1.01-2.28.42-.86.8-1.57 1.3-2.38.92-1.48 2.28-3.34 3.43-4.85.01-.01.01-.01.01-.02a43.92 43.92 0 002.93-4.46c.01-.01.01-.02.02-.04.62-1.13 1.07-2.12 1.52-3.32.81-2.17 1.3-4.08 1.65-6.37.16-1.07.23-1.98.23-3.07-.01-1.05-.05-1.93-.14-2.97-.09-1.06-.15-1.95-.23-3.01-.07-1.27-.03-4.59.04-5.86l.39-6.86.23-4.65c.02-.37.07-1.49.05-1.83a22.82 22.82 0 00-.51-3.85c-.3-1.45-.65-2.65-1.16-4.04-.69-1.9-1.47-3.43-2.6-5.11-.41-.62-.76-1.15-1.18-1.76-1.46-2.12-2.81-4.15-4.03-6.42-1.15-2.15-2.11-3.98-3.24-6.15-.58-1.11-1.7-3.24-2.22-4.2-.17-.32-.53-.97-.73-1.27-2.41-3.58-5.19-6.11-8.97-8.18-.53-.29-1.55-.77-2.1-1.02l-4.21-1.9c-.93-.41-1.7-.78-2.61-1.24-.66-.37-1.2-.71-1.83-1.12-.01 0-.01-.01-.02-.01-.71-.44-1.29-.84-1.97-1.32-.58-.44-1.06-.82-1.63-1.27-.87-.71-1.62-1.28-2.53-1.93-.99-.71-2.31-1.44-3.41-1.95-2.36-1.11-4.48-1.79-7.05-2.25-2.38-.42-4.77-.32-7.16-.1-1.26.11-2.33.2-3.59.29-.89.05-4.12-.02-5.15-.04-.78-.01-1.44-.03-2.22-.08-1.3-.12-2.4-.22-3.7-.35-1.5-.16-2.76-.25-4.27-.33-1.53-.07-2.82-.05-4.35.08-1.71.15-3.13.43-4.77.94-3.29 1.01-5.44 2.34-8.39 4.45-1.19.85-2.2 1.56-3.41 2.38-1.54 1.02-4.3 2.59-6.16 3.62-.79.44-1.47.79-2.28 1.18-.53.25-.98.45-1.52.69-.83.35-1.52.67-2.32 1.09-1.9 1-3.4 2.06-4.98 3.52-1.77 1.62-3.05 3.22-4.23 5.3-.01.02-.02.03-.03.05-.39.75-.71 1.4-1.06 2.18l-2.29 4.93c-.49.98-.93 1.8-1.47 2.76l-.76 1.38c-.41.75-.77 1.38-1.21 2.11-.62.92-1.15 1.7-1.79 2.6l-.99 1.43c-.35.51-.96 1.42-1.26 1.95-.74 1.41-1.3 2.61-1.85 4.08C.85 49.78.16 53.1.24 56.38c.03.9.08 1.66.18 2.55L.7 61.5c.08.97.11 6.58.06 7.67-.12 1.87-.24 3.45-.4 5.31-.15 1.65-.25 3.04-.35 4.68-.03.69 0 1.62.07 2.31z"/><path class="st1" d="M1.6 79.26c.12-2.51.54-6.5.74-10.02.06-1.03.01-7.14-.06-7.87-.39-3.88-.77-5.76-.07-9.6.5-2.76 1.65-5.86 3.04-8.32.7-1.23 2.67-3.92 4-5.91.45-.67 3.12-5.52 3.53-6.41 1.1-2.37 2.87-6.25 3.33-7.06 1.93-3.43 4.99-6.31 8.58-8.21 1.21-.64 2.52-1.15 3.78-1.75 2.34-1.12 7.17-3.93 8.63-4.91 4.96-3.34 6.75-5.19 11.39-6.64C53.95.87 59 1.79 64.97 2.3c.96.08 6.76.17 7.57.12 5.59-.38 8.18-1.06 13.3.47 2.48.74 4.94 1.87 6.91 3.24 1.4.97 2.77 2.15 4.14 3.19.71.54 3.28 2.18 4.01 2.57 1.97 1.05 7.23 3.25 8.91 4.16 3.4 1.85 6.34 4.56 8.42 7.67.63.94 4.04 7.68 6.1 11.48.61 1.13 1.24 2.21 1.94 3.29 2.83 4.41 4.41 6.05 5.78 9.79.94 2.57 1.45 5.03 1.58 7.43.03.65-.41 8.72-.67 13.18-.08 1.28-.1 5.08-.04 6.02.33 4.97.76 6.59-.32 11.2-.57 2.42-1.44 4.76-2.51 6.7-.5.9-1.45 2.38-2.27 3.53-.19.27-.38.53-.57.79-3.18 4.18-4.39 6.06-5.95 9.87-.15.31-.26.53-.3.63-1.07 2.68-1.28 3.61-3.06 6.14-1.58 2.25-3.25 3.85-5.4 5.29-.85.57-8.04 4.08-11.9 6.19a42.6 42.6 0 00-3.37 2.05c-4.37 2.92-6.15 4.5-10.56 5.85-2.71.83-5.7 1.11-8.6 1.01-1.82-.06-4.75-.49-7.09-.69-2.91-.25-8.36-.31-10.98-.01-3.94.45-5.88.64-10.01-.38a23.11 23.11 0 01-7.82-3.56c-.9-.63-1.74-1.34-2.64-2.01-2.18-1.59-7.89-5.01-10.42-6.05-1.04-.43-2.12-.78-3.14-1.23a21.308 21.308 0 01-9.54-8.52c-.49-.83-1.78-3.52-2.66-5.31-1.66-3.41-3.77-6.92-5.98-10.04-3.41-4.8-4.76-6.95-5.85-12.73-.25-1.29-.46-2.93-.38-4.37zm81.63 52.44l-.06-.25s.35.08.66.11c.21.02 1.4-.26 1.8-.42.5-.21 1.08-.38 1.62-.57.71-.26 1.76-.75 2.6-1.22 1.52-.84 6.39-4.22 9.53-6.14 1.12-.69 2.22-1.3 3.41-1.88 6.05-2.98 9.08-3.62 12.58-8.28 1.78-2.37 2.63-4.37 3.78-7.31.01-.02.02-.04.03-.07 1.83-4.52 2.25-5.13 6.04-10.04.23-.27.48-.56.73-.88.45-.62.89-1.23 1.23-1.74 1.01-1.51 2.16-4.13 2.78-6.02.83-2.51 1.38-6.45 1.15-9.27-.05-.62-.15-1.22-.21-1.84-.28-2.8-.08-11.12.09-12.91.42-4.58 1-7.19 0-11.47-.99-4.26-2.43-6.08-5.02-9.87-1.37-2.01-4.64-7.65-5.73-9.85-2.15-4.37-3.16-7.18-6.39-10.32-1.58-1.54-3.84-3.01-5.88-3.94-1.21-.55-2.47-.99-3.71-1.53-1.93-.84-4.75-2.41-6.44-3.56-5.81-3.94-5.93-5.06-10.52-6.78-3.5-1.31-6.55-1.76-10.33-1.37-.83.09-1.63.21-2.46.29-1.57.14-8.39.05-10.12-.06-5.85-.39-9.09-1.49-14.2-.02-1.37.4-3.06 1.08-4.22 1.67-.94.47-8.49 5.64-10.78 6.99-5.27 3.1-8.99 4.03-12.67 7.14-4.98 4.21-5.5 8.09-9.38 15.49-.42.8-.85 1.56-1.33 2.32-3.14 4.96-4.65 6.04-6.27 10.31-.91 2.4-1.31 4.33-1.46 6.79-.05.8.02 3.92.1 4.46.07.5.18.96.26 1.45.06.49.17 5.59.12 6.39-.3 4.81-.86 13.4-.83 13.94.26 3.83 1.32 7.41 3.43 10.7.89 1.39 1.98 2.8 2.97 4.23.64.91 3.01 4.78 3.52 5.75 3.47 6.55 4.41 10.67 9.78 14.37 2.96 2.04 5.87 2.78 10.14 4.92.68.34 4.68 2.81 5.39 3.33 4.61 3.37 6.92 5.34 12.12 6.41.58.12 1.15.22 1.73.3.71.1 3.6.23 4.3.19 1.42-.08 2.83-.3 4.22-.43 1.07-.1 3.49-.19 4.76-.16 2.21.04 10.3.76 13.93 1 .59.04 1.55-.01 2.09-.1.5-.11 1.12-.25 1.12-.25zM6.94 54.95h.11s.2-1.96.47-3.29c.31-1.57 1.67-4.89 2.69-6.33.33-.46.69-.87 1.04-1.32 1.51-1.92 4.88-7.93 5.64-9.48 2.55-5.15 2.64-6.99 5.57-10.27 1.05-1.18 1.78-1.91 3.02-2.75.47-.32 5-2.55 7.57-3.87 2.17-1.11 5.86-3.32 7.78-4.66 4.09-2.85 5.28-4.1 9.21-5.34 5.19-1.65 8.8-.51 15.03-.13.16.01 8.7.19 10.08.01.52-.07 1.01-.18 1.53-.26 4.61-.68 9.4.69 12.97 2.91 1.23.76 3.82 2.83 5.74 4.23.6.44 4.71 2.87 5.33 3.16 5.18 2.42 7.44 2.76 10.9 6.06 1.01.96 1.86 2.02 2.55 3.05.59.88 3.47 6.72 5.25 10.06.61 1.15 1.83 3.17 2.61 4.32 3.82 5.68 5.37 7.12 6.4 12.84.13.74.23 1.43.29 2.15.04.49-.4 7.7-.68 11.68-.07.96-.07 6.77 0 7.62.34 4.37.7 6.39-.48 10.49-.47 1.64-1.23 3.59-2.04 4.91-.43.69-1.17 1.72-1.91 2.72-4.32 5.38-5.32 7.31-6.61 11.06-.83 1.86-1.85 4.04-2.13 4.57-1.65 3.04-3.8 5.1-6.86 6.76-1.69.92-3.69 1.71-5.51 2.58-1.16.56-2.57 1.32-3.69 2-3.65 2.24-10.28 6.55-10.99 6.85-.61.27-1.21.48-1.88.72-.65.23-3 .83-3.32.84-.69.02-1.82.07-2.03.16-.65.26-.78.43-.99.15-.05-.06-.07-.07-.25-.08-4-.26-10.84-.71-12-.72-4.57 0-11.98.32-13.06.23-2.14-.19-4.64-.82-6.5-1.78-.93-.48-6.83-4.64-10.24-6.76-.76-.48-4.25-2.29-5.2-2.71-4.6-2.03-6.48-2.54-9.45-5.64-.61-.63-1.16-1.3-1.6-1.94-.49-.72-2.81-5.56-4.34-8.58-.35-.7-4.14-6.8-4.66-7.5-2.51-3.42-3.94-5.35-4.92-9.29-1.22-5.02-.24-9.38.15-15.72.06-1.01.03-6.4-.04-7.05-.12-1.09-.31-2.02-.42-3.75-.09-1.25-.13-2.91-.13-2.91zm75.39 71.78v-.04c0-.02.02-.02.2-.06 1.45-.29 2.8-.71 3.84-1.15.7-.3 8.56-5.39 12.88-7.92 1.03-.6 3.07-1.64 4.22-2.15 4.61-2.04 6.86-3.31 9.25-7.44.25-.44 1.29-2.56 2.27-4.61 1.64-4.69 3.29-6.47 6.44-10.94.75-1.04 1.53-2.13 2.05-2.94 1.54-2.4 2.57-6.11 2.77-9.18.05-.79 0-2.98-.08-3.77-.08-.76-.2-1.49-.28-2.25-.11-1.19.03-8.2.17-10.28.27-3.81.93-6.38.53-9.46-.07-.55-.83-3.48-1.05-4.07-.99-2.65-1.88-3.71-3.67-6.11-.43-.58-4.24-6.86-4.63-7.64-1.41-2.8-3.31-6.81-4.11-8.13-1.73-2.88-3.98-4.92-7.15-6.46-1.78-.86-3.77-1.55-5.59-2.42-1.77-.85-5.15-2.87-6.79-4.06-3.47-2.53-3.93-3.37-6.83-4.71-2.52-1.16-4.49-1.52-7.2-1.6-1.66-.04-9.25.5-11.27.47-2.4-.04-12.43-.89-13.36-.84-2.67.16-5.33 1.05-7.76 2.46-1.18.69-4.16 2.93-6.24 4.38-.89.62-3.45 2.16-4.46 2.7-6.66 3.51-10.61 4.39-13.78 9.6-.6.98-2.5 5.3-3.84 8-.97 1.95-3.27 5.87-4.66 7.85-2.33 3.32-3.32 4.41-4.35 7.95-1.19 4.12-.59 5.93-.23 10.38.1 1.27.08 7.6-.07 9.86-.39 6.05-1.3 7.55-.22 12.04.35 1.44.67 2.36 1.35 3.67.54 1.04 5.62 8.47 6.7 10.34 1.14 1.98 4.31 8.7 5.02 9.84 3.09 4.96 7.27 5.76 13.9 9.08 1.13.57 2.57 1.38 3.49 1.99 5.64 3.68 7.46 6.15 12.92 7.15.87.16 1.71.24 2.6.28 1.53.07 11.03-.45 12.65-.39 3.33.13 9.69.81 10.84.78 1.65-.06 3.53-.2 3.53-.2zm30.52-23.4c-.78 1.67-1.5 3.19-1.9 3.93-.95 1.79-2.62 3.41-4.36 4.44-.62.37-2.57 1.21-3.92 1.84-1.95.9-7.28 3.89-8.82 4.88-5.47 3.54-7.49 5.8-12.86 6.3-3.01.28-8.67-.4-10.95-.55-1.27-.08-5.53-.13-6.65-.08-2.9.14-7.97.35-8.52.3-1.96-.17-4.34-.91-6.14-1.93-.54-.31-2.76-1.98-4.19-3.02-1.95-1.41-6.03-3.85-7.96-4.8-2.66-1.31-7.05-3.22-7.91-3.76-1.3-.81-2.4-1.82-3.29-3.04-.49-.67-4.49-8.59-5.95-11.06-1.32-2.24-6-9-6.46-9.92-.18-.36-.34-.71-.5-1.06-.2-.43-.92-2.88-.96-3.26-.03-.27-.05-.56-.05-.56h-.06s-.13-.82-.2-1.48c-.26-2.23.15-4.76.36-7.01.09-1.02.29-8.94.24-9.73-.17-2.84-.45-7.77-.41-8.33.19-2.52.93-5.03 2.19-7.24.39-.69 2.06-3.01 3.12-4.53.45-.64 3.34-5.64 3.7-6.41 1.34-2.81 3.67-7.76 4-8.28 1.12-1.79 2.5-3.05 4.34-4.28.92-.61 7.23-3.67 10.7-5.6.95-.53 3.12-1.92 4.01-2.57 3.61-2.64 5.64-4.37 9.53-5.1.9-.17 1.88-.28 2.82-.32.6-.02 7.81.58 11.76.87.85.06 6.17.03 6.86-.04 3.9-.41 5.9-.85 9.38.25 1.35.42 2.26.86 3.37 1.54 1.43.88 5.04 3.72 7.52 5.37.87.58 2.54 1.55 3.49 2.02 2.73 1.35 7.51 3.46 8.38 4 1.59.99 2.83 2.29 3.95 3.91.54.78 4.07 7.76 6.15 11.61.51.95 2.22 3.68 2.75 4.41 2.07 2.81 2.55 3.17 3.68 5.77 1.2 2.76 1.56 6.28 1.31 9.26-.22 2.6-.63 6.41-.67 8.01-.07 2.65.35 13.25.25 14.01-.28 2.09-1.22 4.98-2.53 7.04-.4.64-.89 1.29-1.4 1.96-3.92 4.59-5.75 8.35-7.2 12.24zm-56.48 18.99c.54-.01 1.35-.12 2.13-.22.66-.08 9.1-.21 9.9-.16 3.77.26 10.39.72 11.29.71 5.03-.06 7-2.52 12.31-5.84 1.51-.94 13.82-7.33 14.3-7.72 2.51-2.03 3.24-4.44 5.04-8.62.39-.89 2.32-4.64 2.72-5.25 2.63-4.1 5.58-6.75 6.94-10.78 1.45-4.31.78-6.83.56-12.06-.03-.6.35-7.46.63-12.48.21-3.68.06-6.95-1.93-10.33-.57-.83-1.62-2.25-2.35-3.27-2.08-2.9-5.42-9.07-6.76-11.95-1.33-2.86-1.62-3.73-3.49-5.72-.7-.74-1.18-1.18-1.9-1.65-.68-.44-6.03-2.69-8.45-3.94-1.99-1.03-6.3-3.84-7.59-4.84-3.24-2.48-4.41-3.74-8.15-4.34-.41-.07-.8-.11-1.2-.14-.55-.04-6.86.28-10.29.45-.9.04-6.2-.09-7.08-.18-2.96-.31-5.87-.88-8.29-.61-.54.06-2.46.52-2.92.7-2.68 1.05-5.66 3.41-7.96 5.05-.92.65-3.17 2.06-4.13 2.58-2.91 1.57-7.68 3.78-8.94 4.55-1.83 1.12-3.06 2.29-4.15 4.02-.59.93-3.15 6.53-4.82 9.8-.39.77-2.95 4.93-3.47 5.64-2.26 3.12-3.44 4.41-4.33 7.7-.21.77-.33 1.48-.4 2.22-.09.86.27 8.22.39 12.6.02.79-.46 8.98-.58 9.79-.19 1.31-.25 1.78-.16 2.98.38 4.93 2.86 7.17 6.23 12.28.63.96 3.09 5.21 3.64 6.31.55 1.1 2.68 5.78 3.83 7.26 1.96 2.52 4.89 3.31 8.16 4.77 2.59 1.16 6.46 3.37 8.87 5.06 4.04 2.84 6.09 4.92 10.35 5.48.69.09 1.53.16 2.05.15zM30.42 61.2l-.12 6.94c0 .18-.01.21-.02.26-.06.17-.39.46-.42.49-.38.27-1.35.32-1.96.35-.77.05-4.4-.04-4.81-.12-.67-.13-1.2-.33-1.34-1.24-.14-.9 1.32-3.1 1.82-3.97.09-.16.1-.2.11-.38.11-3.68.1-8.37.28-11.05.06-.88.03-4.02-.04-4.31-.05-.2-.11-.39-.13-.59-.04-.55.09-.64-.28-1.08-.24-.28-.57-.52-.81-.83-.22-.29-.6-1.15-.57-1.51.09-1.01 2.24-1.95 3.09-2.33 3.1-1.4 5.03-2.13 8.25-2.33 2.86-.18 4.84.1 7.12 1.48 2.52 1.53 3.69 4.33 3.57 7.48-.11 3.04-1.42 6.3-3.46 8.52-.15.16-.29.31-.47.43-.68.48-1.14.49-1.28 1-.28 1.06 1.13 4.52 1.47 5.22 1.52 3.05 2.61 3.86 5.4 6.6.13.13.15.16.21.34.16.47.08.76-.29 1.03-.91.66-4.01.46-4.51.38-1.56-.25-3.22-.97-4.45-2.08-1.26-1.13-2.41-2.79-2.72-4.12-.41-1.82-.82-5.68-.98-5.91-.33-.5-.85-.59-1.69-.42-.7.14-.78.44-.94 1.35-.03.17-.03.21-.03.4zm-.13-16.43l.22 10.27c0 .18.01.22.09.33.68 1.02 2.79-.18 3.52-.73 1.48-1.12 2.13-2.75 2.58-4.63.39-1.62.48-3.79-.57-5.41-.81-1.25-2.41-1.45-3.96-1.21-.77.12-1.44.29-1.71.72-.06.09-.11.2-.14.31-.03.13-.03.17-.03.35zm17.25 3.02c0-.04-.12.01-.17 0-.03 0-.01-.05.03-.08.06-.06.13-.04.19-.07.08-.03.48-1.44.7-2.46.32-1.48 1.7-4.36 2.42-5.35 2.63-3.62 8.37-5 12.02-3.34 2.15.97 4.01 3.14 5 5.26.22.46 1.35 4.06 1.49 4.71.46 2.23.76 4.96.72 7.23-.06 3.91-1.13 8.92-3.27 12.04-.93 1.35-2.06 2.45-3.27 3.12-.36.2-2.32.9-2.78.99-3.58.72-6.98-.31-9.48-3.04-.29-.32-1.62-2.33-1.85-2.8-.25-.52-1.34-3.64-1.5-4.3-.16-.67-.78-5.17-.81-5.87-.03-.74.08-2.92.19-3.64.13-.83.32-1.79.37-2.4zm14.48-2.97l-.3.01s.05-.49.05-.89c.01-1.1-.67-3.04-1.45-3.63-.84-.63-1.82-.53-2.51.14-2.15 2.09-3.02 8.47-3.16 10.58-.29 4.57-.07 10.26 2.37 13.83.37.54.65.78 1.28.9 1.37.26 1.88-.51 2.45-2.09 1.04-2.86 1.35-4.86 1.66-8.04.08-.81.15-5.5.09-6.24-.16-1.99-.48-4.57-.48-4.57zm26.45-6.99l.11 5.11c0 .18 0 .22-.04.33-.14.44-.54.55-.81.48-.15-.04-1.74-1.38-2.63-2.18-.74-.66-2.13-1.39-3.23-1.2-1.32.23-2.31 1.5-2.52 2.68-.24 1.37.18 2.28.99 3.2.39.44 6.5 4.88 7.47 5.77 2.16 1.99 3.12 4.58 3.33 7.5.16 2.3-.27 3.92-1.31 6.05-.7 1.43-1.58 2.31-3.01 3.17-1 .6-1.51.75-2.69.85-1.59.13-2.68.09-4.02-.39-.56-.2-3.91-1.87-4.83-1.14-.34.27-.63 1.04-.98 1.33-.23.19-.67.22-.92-.01-.18-.16-.33-.72-.38-1.11-.02-.18-.03-.22-.03-.41-.01-1.85-.05-5.31.02-5.55.27-.93 1.29-.79 1.98.01.81.94.61 1.19 1.48 1.86 1.17.91 3.02 1.58 4.4 1.4 1.88-.25 2.75-1.7 2.95-3.55.25-2.32-1.92-4.72-4.08-5.78-.19-.09-.38-.17-.57-.27-.29-.15-2.68-2.05-3.16-2.53-1.4-1.37-1.8-2-2.6-3.82-.22-.5-.77-2.33-.76-2.54.01-.3.05-.43-.15-.69-.08-.11-.09-.14-.08-.32l.14-2.61c.01-.18.02-.22.06-.4.58-2.18 1.39-3.76 3.05-5.18 1.52-1.3 3.84-1.66 5.79-1.34.38.06 2.07.66 2.34.83.63.4 1.62 1.02 1.79 1.03.17.02.41 0 .55-.1.23-.16.76-1.47.98-1.61.34-.22.92-.05 1.14.29.07.11.14.27.18.42.04.19.05.23.05.42zm27.51 26.53l-1.8 4.23c-.07.17-.09.2-.17.31-.22.3-.48.33-1.09.48-.18.05-.22.05-.4.05l-18.49-.04c-.18 0-.22 0-.39-.03-.56-.08-.85-.49-1-1.1-.16-.67.52-1.11 1.24-2.43.15-.28.33-.87.38-1.29.07-.53 0-14.66-.03-21.99 0-.18-.02-.22-.14-.35-.85-.85-1-.93-1.23-1.73-.23-.79-.2-.94-.01-1.7.12-.48.17-.58.56-.73.16-.06.19-.06.37-.02 4.58 1.19 11.02 2.84 13.72 3.62.82.24 2.69.95 2.96 1.12.57.37 1.12 1.07 1.53 1.98.1.22 1.3 3.42 1.03 3.83-.11.16-.3.32-.3.32s-1.67-1.37-2.68-2.14c-.56-.43-1.29-.88-1.72-1.06-.46-.2-4.21-1.26-4.83-1.36-.93-.16-1.9-.33-2.14.31-.19.5-.22 1.47-.24 2.01-.03.93.19 5.73.27 6.01.11.36.22.44.69.49.49.05 2.66-.02 3.24-.11.4-.06.9-.23 1.16-.38 1.1-.67 2-1.79 2.58-1.07.13.16.2.4.27.7.09.39.32 5.05.26 5.31-.13.63-.28.93-.92.69-.12-.04-.23-.09-.34-.16-.54-.32-1.73-1.68-2.25-1.99-.18-.11-.66-.21-1.1-.23-.86-.04-2.74-.01-2.96.06-.49.16-.73.64-.89 1.3-.07.26 0 7.9.07 8.46.07.55.11.74.41.85 1.06.39 6.53.1 6.96.04.64-.09 1.22-.23 1.78-.44.34-.12 1.7-.95 1.97-1.19.86-.78 2.12-2.18 2.49-2.37.6-.31 1.23.1 1.32.87.02.15.01.32-.01.47-.04.19-.05.23-.13.4z"/><path class="st1" d="M30.23 94.11l-4.38.1.03-15.71-3.17-.04-.03-1.19s3.09.11 6.13.09c2.37-.01 4.72-.1 4.72-.1l.03 1.24-3.47.08s-.07.69-.12 1.41c-.08 1.26.26 14.12.26 14.12zm11.51-16.59l3.67-.08.2 16.73-3.67.08s-.06-1.28-.09-2.57c-.12-4.28-.04-8.75-.04-8.75s-.31-.09-.66-.14c-.72-.09-1.59.03-1.59.03s-.11 3.74-.07 7.38c.02 1.98.09 3.93.09 3.93l-4.01.09-.2-16.78 4.01-.03.09 4.12 1.91.01c.18 0 .21 0 .25-.05.11-.13.14-.35.15-.5.04-.91-.04-3.47-.04-3.47zm17.14.51l.01.53s-2.82-.12-4.47-.02c-.84.06-1.62.16-1.62.16l-.01 2.82 4.92.01.02 1.13-5.07.05.09 9.97s1.03.08 2.09.11c1.8.05 3.68-.02 3.68-.02l.03 1.41-4.97.05v.11h-.17v-.11h-4.97l.08-16.85 10-.01s0 .28.06.39c.05.07.12.05.19.06.09 0 .1.02.11.21zm5.5-.55l5.78-.07.01.43 4.48 16.31s-1.49.11-2.88.06c-.74-.03-1.46-.1-1.46-.1l-2.29-9.09-3.66.02-2.31 9.35-2.71-.13s1.52-5.64 3.2-11.08c.9-2.87 1.84-5.7 1.84-5.7zm.38 6.15l2.66.06-.09-1.45-.57-3.08c-.03-.18-.05-.2-.12-.24a.492.492 0 00-.17-.06c-.63-.15-.67 0-.78.61-.22 1.18-.93 4.16-.93 4.16zm19.94-6.05l-.04.98-3.62.08.11 15.54-4.24.09-.06-15.71-2.94-.11-.02-1.07 10.46.03.35.17zm2.11 16.65l-.08-16.79s5.22-.15 7.52-.11c1.6.03 3.18.68 3.75 2.35.57 1.67.35 3.83-.94 4.71-.54.37-1.48.74-1.63.96-.13.19-.03 2.06.07 2.69.2 1.25 1.36 3.72 2.17 4.87.68.96 1.82 2.32 1.82 2.32s-.96.19-1.54.22c-1.23.07-2.96-.84-3.68-1.78-.6-.79-1.09-1.97-1.31-2.88-.33-1.45-.7-4.65-.7-4.65s-.32.01-.55.01c-.3.01-.53.06-.53.14-.01.27-.15 1.13-.18 2.51-.06 2.08.12 5.33.12 5.33s-.58-.09-.81-.08c-.13 0-.15.04-.23.06-.4.13-3.27.12-3.27.12zm5.66-15.61l-1.42.03s-.09 1.75-.09 3.48c0 1.24.05 2.47.05 2.47s2.17-.66 2.3-.83c.07-.09.06-.19.14-.25.06-.04.16-.07.24-.12.26-.16.64-1.01.74-1.33.34-1.07.25-2.67-.59-3.12-.25-.13-.63-.21-.96-.29-.19-.04-.23-.05-.41-.04zm7.77-1.19l12.21-.1.08 1.19-7.57.1s-.12.87-.13 1.71c-.01.6.03 1.18.03 1.18l6.1.02.02 1.09-6.16.13s-.07 1.58-.1 3.18c-.05 3.3.09 6.72.09 6.72s.75.08 1.53.13c1.95.12 5.66.03 5.66.03l.03 1.32-11.88-.02s.18-5.25.18-10.38c-.02-3.17-.09-6.3-.09-6.3z"/></svg>